<mxfile host="app.diagrams.net" agent="Mozilla/5.0 (Windows NT 10.0; Win64; x64) AppleWebKit/537.36 (KHTML, like Gecko) Chrome/129.0.0.0 Safari/537.36" version="24.7.17">
  <diagram name="Page-1" id="6_3JAQkEr-z-qoVkXsTK">
    <mxGraphModel dx="2300" dy="746" grid="1" gridSize="10" guides="1" tooltips="1" connect="1" arrows="1" fold="1" page="0" pageScale="1" pageWidth="850" pageHeight="1100" background="none" math="0" shadow="0">
      <root>
        <mxCell id="0" />
        <mxCell id="1" parent="0" />
        <mxCell id="G6EESjdat58FD9xq4We0-9" value="" style="rounded=1;whiteSpace=wrap;html=1;direction=south;fillColor=#f8cecc;strokeColor=#b85450;" parent="1" vertex="1">
          <mxGeometry x="750" y="250" width="150" height="390" as="geometry" />
        </mxCell>
        <mxCell id="G6EESjdat58FD9xq4We0-8" value="" style="rounded=1;whiteSpace=wrap;html=1;direction=south;fillColor=#fff2cc;strokeColor=#d6b656;" parent="1" vertex="1">
          <mxGeometry x="490" y="250" width="150" height="390" as="geometry" />
        </mxCell>
        <mxCell id="G6EESjdat58FD9xq4We0-21" value="" style="rounded=1;html=1;verticalAlign=middle;whiteSpace=wrap;fillColor=#dae8fc;strokeColor=#6c8ebf;" parent="1" vertex="1">
          <mxGeometry x="-382.5" y="370" width="172.5" height="90" as="geometry" />
        </mxCell>
        <mxCell id="G6EESjdat58FD9xq4We0-3" value="" style="rounded=1;whiteSpace=wrap;html=1;direction=south;" parent="1" vertex="1">
          <mxGeometry x="220" y="250" width="150" height="390" as="geometry" />
        </mxCell>
        <mxCell id="G6EESjdat58FD9xq4We0-4" value="&lt;font style=&quot;font-size: 21px;&quot;&gt;&lt;b&gt;2&lt;/b&gt;&lt;/font&gt;" style="rounded=1;whiteSpace=wrap;html=1;" parent="1" vertex="1">
          <mxGeometry x="316.5" y="89.99999999999999" width="119" height="30" as="geometry" />
        </mxCell>
        <mxCell id="G6EESjdat58FD9xq4We0-10" value="&lt;font style=&quot;font-size: 15px;&quot;&gt;&lt;b&gt;Pila Principal&lt;/b&gt;&lt;/font&gt;" style="text;html=1;align=center;verticalAlign=middle;whiteSpace=wrap;rounded=0;" parent="1" vertex="1">
          <mxGeometry x="240" y="660" width="110" height="30" as="geometry" />
        </mxCell>
        <mxCell id="G6EESjdat58FD9xq4We0-11" value="&lt;font style=&quot;font-size: 15px;&quot;&gt;&lt;b&gt;Pila Auxiliar 1&lt;/b&gt;&lt;/font&gt;" style="text;html=1;align=center;verticalAlign=middle;whiteSpace=wrap;rounded=0;" parent="1" vertex="1">
          <mxGeometry x="510" y="660" width="110" height="30" as="geometry" />
        </mxCell>
        <mxCell id="G6EESjdat58FD9xq4We0-12" value="&lt;font style=&quot;font-size: 15px;&quot;&gt;&lt;b&gt;Pila Auxiliar 2&lt;/b&gt;&lt;/font&gt;" style="text;html=1;align=center;verticalAlign=middle;whiteSpace=wrap;rounded=0;" parent="1" vertex="1">
          <mxGeometry x="770" y="650" width="110" height="30" as="geometry" />
        </mxCell>
        <mxCell id="G6EESjdat58FD9xq4We0-13" value="&lt;font style=&quot;font-size: 21px;&quot;&gt;&lt;b&gt;8&lt;/b&gt;&lt;/font&gt;" style="rounded=1;whiteSpace=wrap;html=1;" parent="1" vertex="1">
          <mxGeometry x="-120" y="89.99999999999999" width="119" height="30" as="geometry" />
        </mxCell>
        <mxCell id="G6EESjdat58FD9xq4We0-14" value="&lt;font style=&quot;font-size: 21px;&quot;&gt;&lt;b&gt;10&lt;/b&gt;&lt;/font&gt;" style="rounded=1;whiteSpace=wrap;html=1;" parent="1" vertex="1">
          <mxGeometry x="32" y="91.42999999999999" width="119" height="30" as="geometry" />
        </mxCell>
        <mxCell id="G6EESjdat58FD9xq4We0-15" value="&lt;font style=&quot;font-size: 21px;&quot;&gt;&lt;b&gt;8&lt;/b&gt;&lt;/font&gt;" style="rounded=1;whiteSpace=wrap;html=1;" parent="1" vertex="1">
          <mxGeometry x="171" y="91.42999999999999" width="119" height="30" as="geometry" />
        </mxCell>
        <mxCell id="G6EESjdat58FD9xq4We0-16" value="&lt;font style=&quot;font-size: 21px;&quot;&gt;&lt;b&gt;5&lt;/b&gt;&lt;/font&gt;" style="rounded=1;whiteSpace=wrap;html=1;" parent="1" vertex="1">
          <mxGeometry x="-270" y="90" width="119" height="30" as="geometry" />
        </mxCell>
        <mxCell id="G6EESjdat58FD9xq4We0-17" style="edgeStyle=orthogonalEdgeStyle;rounded=0;orthogonalLoop=1;jettySize=auto;html=1;exitX=0.5;exitY=1;exitDx=0;exitDy=0;" parent="1" source="G6EESjdat58FD9xq4We0-15" target="G6EESjdat58FD9xq4We0-15" edge="1">
          <mxGeometry relative="1" as="geometry" />
        </mxCell>
        <mxCell id="G6EESjdat58FD9xq4We0-18" value="&lt;font style=&quot;font-size: 21px;&quot;&gt;&lt;b&gt;3&lt;/b&gt;&lt;/font&gt;" style="rounded=1;whiteSpace=wrap;html=1;" parent="1" vertex="1">
          <mxGeometry x="-410" y="91.43" width="119" height="30" as="geometry" />
        </mxCell>
        <mxCell id="G6EESjdat58FD9xq4We0-20" value="&lt;font size=&quot;1&quot; style=&quot;&quot;&gt;&lt;b style=&quot;font-size: 18px;&quot;&gt;ELEM&lt;/b&gt;&lt;/font&gt;" style="text;html=1;align=center;verticalAlign=middle;whiteSpace=wrap;rounded=0;" parent="1" vertex="1">
          <mxGeometry x="-340" y="340" width="110" height="30" as="geometry" />
        </mxCell>
        <mxCell id="o9uLxHuF5kjq2CMYlZBC-5" style="edgeStyle=orthogonalEdgeStyle;rounded=0;orthogonalLoop=1;jettySize=auto;html=1;exitX=0.5;exitY=1;exitDx=0;exitDy=0;" edge="1" parent="1" source="G6EESjdat58FD9xq4We0-14" target="G6EESjdat58FD9xq4We0-14">
          <mxGeometry relative="1" as="geometry" />
        </mxCell>
        <mxCell id="o9uLxHuF5kjq2CMYlZBC-8" style="edgeStyle=orthogonalEdgeStyle;rounded=0;orthogonalLoop=1;jettySize=auto;html=1;exitX=0.5;exitY=1;exitDx=0;exitDy=0;" edge="1" parent="1" source="G6EESjdat58FD9xq4We0-18" target="G6EESjdat58FD9xq4We0-18">
          <mxGeometry relative="1" as="geometry" />
        </mxCell>
      </root>
    </mxGraphModel>
  </diagram>
</mxfile>
